<svg width="91" height="98" viewBox="0 0 91 98" fill="none" xmlns="http://www.w3.org/2000/svg">
<path d="M43.3844 0.0151161C44.1295 0.00466074 44.8746 -0.0003717 45.6205 2.13568e-05C53.0792 0.0208534 60.5607 2.25476 65.6309 4.89712C81.6566 13.2487 88.1132 26.7299 90.2541 37.8855C91.1132 42.3656 90.9843 47.1664 90.8373 51.648C75.7281 51.6134 60.6197 51.6197 45.5104 51.6645L45.4932 61.0759C36.2597 61.0437 27.0263 61.0366 17.7929 61.0547C20.1665 69.5942 34.7696 86.7873 56.4997 78.8271C68.3959 74.4697 73.1494 64.3273 74.7032 57.3623C80.1357 57.3733 85.5683 57.3654 91 57.3387C90.0459 70.2561 78.868 94.9142 48.1049 97.4463C38.4526 97.7489 29.5123 95.2726 23.4699 91.6204C3.69367 79.6691 -1.34509 60.7371 0.285768 45.7993L45.5993 45.7821C45.5788 42.6588 45.5993 39.5364 45.6598 36.4131C54.5765 36.3031 64.3404 36.4116 73.3459 36.3998C70.834 27.9094 56.2938 10.2164 33.9978 18.7727C22.5841 23.153 17.8267 33.1578 16.379 40.0827L0.0405506 40.034C1.31144 29.0252 7.14479 15.989 20.9462 7.07458C26.4667 3.50853 34.1801 0.560679 43.3844 0.0151161Z" fill="url(#paint0_linear_432_43)"/>
<defs>
<linearGradient id="paint0_linear_432_43" x1="45.4315" y1="79.5051" x2="45.4315" y2="166.651" gradientUnits="userSpaceOnUse">
<stop stop-color="white"/>
<stop offset="1" stop-color="#3676FF"/>
</linearGradient>
</defs>
</svg>
